# xmcd
#
# Track frame offsets: 
#        300
#        17886
#        40236
#        59515
#        71139
#        83944
#        95644
#        118709
#        133819
#        145298
#        175246
#        191441
#        209006
#        235326
#        252404
#        293712
#
# Disc length: 4132 seconds
#
# Revision: 0
# Processed by: cddbd v1.4PL0 Copyright (c) Steve Scherf et al.
# Submitted via: ExactAudioCopy v0.90a11
#
DISCID=00102010
DTITLE=Muddy Waters - A Night In Boston
DYEAR=1900
DGENRE=
TTITLE0=Blow Wind Blow
TTITLE1=Howlin' Wolf
TTITLE2=What's The Matter With The Mill
TTITLE3=Someday Baby
TTITLE4=Hoochie Coochie Man
TTITLE5=Baby Please Don't Go
TTITLE6=Mannish Boy
TTITLE7=Everything's Going To Be Alright
TTITLE8=Got My Mojo Working
TTITLE9=Instumental
TTITLE10=Harmonica Boogie
TTITLE11=Garbage Man
TTITLE12=Caledonia
TTITLE13=Blow Wind Blow
TTITLE14=Kansas City
TTITLE15=Corina Corina
EXTD=
EXTT0=
EXTT1=
EXTT2=
EXTT3=
EXTT4=
EXTT5=
EXTT6=
EXTT7=
EXTT8=
EXTT9=
EXTT10=
EXTT11=
EXTT12=
EXTT13=
EXTT14=
EXTT15=
PLAYORDER=
